<svg width="16" height="16" viewBox="0 0 16 16" fill="none" xmlns="http://www.w3.org/2000/svg">
<path d="M5.21686 8.65412H5.18668L5.20802 8.67546L8.47469 11.9421C8.60575 12.0732 8.66814 12.2255 8.6627 12.3996C8.65725 12.5739 8.58932 12.7264 8.45822 12.8576C8.3271 12.9777 8.17445 13.0403 7.9998 13.0458C7.8257 13.0512 7.67342 12.9888 7.54237 12.8578L3.14237 8.45778C3.07682 8.39224 3.03071 8.32155 3.00363 8.24575C2.97637 8.16942 2.9627 8.08752 2.9627 7.99995C2.9627 7.91239 2.97637 7.83048 3.00363 7.75416C3.03071 7.67835 3.07682 7.60767 3.14237 7.54212L7.54237 3.14212C7.66209 3.0224 7.81162 2.96245 7.99186 2.96245C8.17202 2.96245 8.32727 3.02236 8.45822 3.14232C8.58915 3.27334 8.65436 3.42846 8.65436 3.60828C8.65436 3.7882 8.58909 3.94338 8.45802 4.07445L5.20802 7.32445L5.18668 7.34578H5.21686H12.6669C12.8526 7.34578 13.0077 7.40847 13.133 7.53379C13.2583 7.65911 13.321 7.81421 13.321 7.99995C13.321 8.18569 13.2583 8.34079 13.133 8.46611C13.0077 8.59143 12.8526 8.65412 12.6669 8.65412H5.21686Z" fill="CurrentColor" stroke="CurrentColor" stroke-width="0.025"/>
</svg>
